<mxfile host="app.diagrams.net" modified="2023-08-04T09:09:43.111Z" agent="Mozilla/5.0 (Macintosh; Intel Mac OS X 10_15_7) AppleWebKit/537.36 (KHTML, like Gecko) Chrome/115.0.0.0 Safari/537.36" etag="V-ueZ67x6gMzi5qtvk0W" version="21.6.6" type="github">
  <diagram name="第 1 页" id="7n4bdka5UETFfVtZC2aM">
    <mxGraphModel dx="942" dy="535" grid="1" gridSize="10" guides="1" tooltips="1" connect="1" arrows="1" fold="1" page="1" pageScale="1" pageWidth="827" pageHeight="1169" math="0" shadow="0">
      <root>
        <mxCell id="0" />
        <mxCell id="1" parent="0" />
        <mxCell id="y2Dod2MjQHtEUexFDou5-2" value="trigger&lt;br&gt;通知风控计算" style="rounded=1;whiteSpace=wrap;html=1;" vertex="1" parent="1">
          <mxGeometry x="120" y="190" width="120" height="60" as="geometry" />
        </mxCell>
        <mxCell id="y2Dod2MjQHtEUexFDou5-3" value="" style="rounded=1;whiteSpace=wrap;html=1;" vertex="1" parent="1">
          <mxGeometry x="120" y="360" width="120" height="60" as="geometry" />
        </mxCell>
        <mxCell id="y2Dod2MjQHtEUexFDou5-7" style="edgeStyle=orthogonalEdgeStyle;rounded=0;orthogonalLoop=1;jettySize=auto;html=1;entryX=0.5;entryY=0;entryDx=0;entryDy=0;" edge="1" parent="1" source="y2Dod2MjQHtEUexFDou5-6" target="y2Dod2MjQHtEUexFDou5-2">
          <mxGeometry relative="1" as="geometry" />
        </mxCell>
        <mxCell id="y2Dod2MjQHtEUexFDou5-6" value="业务事件&lt;br&gt;如：风控通过" style="shape=ext;double=1;rounded=1;whiteSpace=wrap;html=1;" vertex="1" parent="1">
          <mxGeometry x="120" y="60" width="120" height="60" as="geometry" />
        </mxCell>
        <mxCell id="y2Dod2MjQHtEUexFDou5-8" value="Text" style="text;strokeColor=none;align=center;fillColor=none;html=1;verticalAlign=middle;whiteSpace=wrap;rounded=0;" vertex="1" parent="1">
          <mxGeometry x="310" y="30" width="60" height="30" as="geometry" />
        </mxCell>
      </root>
    </mxGraphModel>
  </diagram>
</mxfile>
